<?xml version="1.0" encoding="utf-8"?>
<!-- Generator: Adobe Illustrator 28.3.0, SVG Export Plug-In . SVG Version: 6.00 Build 0)  -->
<svg version="1.1" id="Layer_1" xmlns="http://www.w3.org/2000/svg" xmlns:xlink="http://www.w3.org/1999/xlink" x="0px" y="0px"
	 viewBox="0 0 120 105" style="enable-background:new 0 0 120 105;" xml:space="preserve">
<style type="text/css">
	.st0{fill:url(#SVGID_1_);}
	.st1{fill:#4B4751;}
</style>
<linearGradient id="SVGID_1_" gradientUnits="userSpaceOnUse" x1="55.04" y1="57.73" x2="115.21" y2="57.73">
	<stop  offset="0.2668" style="stop-color:#F9501B"/>
	<stop  offset="0.5646" style="stop-color:#DC673A"/>
	<stop  offset="0.824" style="stop-color:#CA764E"/>
	<stop  offset="1" style="stop-color:#C37B55"/>
</linearGradient>
<polygon class="st0" points="55,55.7 85.6,35.8 115.2,51.8 113.3,59.2 109.7,66.6 103.2,73.4 97.7,76.8 85,79.7 77.6,77.7 
	69.3,75.5 63.3,71.4 59.7,65.7 56.3,60.7 "/>
<path class="st1" d="M0,103.6l0.8-2.7c1,0.8,2.4,1.3,3.6,1.3c1.1,0,1.5-0.5,1.5-1.1c0-0.7-0.3-1.1-2.3-1.9c-2.3-0.9-3.1-2.3-3.1-3.8
	c0-1.9,1.5-3.8,4.6-3.8c1.4,0,2.9,0.5,3.6,1L8,95.2c-0.8-0.5-2-1.1-2.9-1.1c-1.1,0-1.5,0.5-1.5,1.1c0,0.8,0.7,1.1,2.3,1.8
	c2.4,1,3.2,2.2,3.2,3.9c0,2.1-1.5,4.1-4.6,4.1C2.9,105,1.1,104.4,0,103.6L0,103.6z"/>
<path class="st1" d="M16.3,99.6l-4.6-7.9h3.5l2.7,5l2.7-5h3.4l-4.6,7.9v5.2h-3L16.3,99.6L16.3,99.6z"/>
<path class="st1" d="M38.2,104.8l-0.2-6.4l-3.6,4.6h-0.3l-3.6-4.6l-0.1,6.4h-2.9l0.6-13.1l0.4,0l5.9,7.4l5.8-7.4l0.4,0l0.6,13.1
	C41.2,104.8,38.2,104.8,38.2,104.8z"/>
<path class="st1" d="M45.9,91.8c1.3-0.1,2.5-0.2,3.6-0.2c3.8,0,5.8,2,5.8,4.6s-1.8,4.6-5.3,4.6c-0.4,0-0.7,0-1.1,0v3.9h-3L45.9,91.8
	L45.9,91.8z M52.3,96.3c0-1.1-0.7-1.9-2.2-1.9c-0.4,0-0.7,0-1.1,0.1v3.7c0.4,0,0.6,0,0.9,0C51.5,98.3,52.3,97.6,52.3,96.3z"/>
<path class="st1" d="M59.5,91.7h3v5.1h5v-5.1h3v13h-3v-5.2h-5v5.2h-3V91.7z"/>
<path class="st1" d="M75.1,98.2c0-3.8,2.7-6.7,6.7-6.7s6.6,2.9,6.6,6.7s-2.7,6.7-6.7,6.7S75.1,102.1,75.1,98.2z M85.2,98.2
	c0-2.3-1.4-4-3.4-4s-3.4,1.7-3.4,4s1.4,4,3.4,4S85.2,100.6,85.2,98.2z"/>
<path class="st1" d="M103.8,105l-7.9-7.1v6.8h-3V91.5l0.4-0.1l7.8,7v-6.8h3v13.2L103.8,105L103.8,105z"/>
<path class="st1" d="M112.4,99.6l-4.6-7.9h3.5l2.7,5l2.7-5h3.4l-4.6,7.9v5.2h-3L112.4,99.6L112.4,99.6z"/>
<path class="st1" d="M107.8,25.7c-6.1-6-14.4-9.3-23.2-9.3s-17.1,3.3-23.2,9.3c-6.2,6.1-9.7,14.5-9.7,23.6c0,2,0.2,4,0.5,5.9
	c-4,3.1-9,5-14.3,5.5c-7.6,0.8-14.9-1.3-20.5-5.9c-5.6-4.6-9.1-11.4-9.9-19.1c-0.8-7.7,1.2-15.1,5.7-20.8c4.4-5.6,11-9.1,18.4-9.9
	c8.4-0.9,16.2,1.9,22,7.7l0.8,0.8l3.7-3.4l-0.8-0.8C50.1,2.4,40.9-0.8,31,0.2c-8.8,0.9-16.6,5-21.9,11.6c-5.4,6.6-7.8,15.3-6.9,24.5
	c0.9,9,5,17,11.6,22.4c5.8,4.7,12.9,7.2,20.8,7.2c1.2,0,2.5-0.1,3.7-0.2c5.5-0.6,10.7-2.4,15.1-5.3c1.6,4.8,4.3,9,7.9,12.6
	c6.1,6,14.4,9.3,23.2,9.3s17.1-3.3,23.2-9.3c6.2-6.1,9.7-14.5,9.7-23.6S114,31.8,107.8,25.7z M112.2,48.6L85.6,33.3L57,52
	c-0.1-0.9-0.1-1.9-0.1-2.8c0-7.8,2.8-14.9,7.9-20.1c5.1-5.1,12.1-8,19.8-8s14.7,2.8,19.8,8C109.2,34.2,112,41.1,112.2,48.6
	L112.2,48.6z M111.8,53.8c-0.9,6-3.5,11.4-7.6,15.5c-5.1,5.1-12.1,8-19.8,8s-14.7-2.8-19.8-8c-3.3-3.3-5.7-7.5-6.9-12.2l27.9-18.3
	L111.8,53.8L111.8,53.8z"/>
</svg>
